<svg width="497" height="299" viewBox="0 0 497 299" fill="none" xmlns="http://www.w3.org/2000/svg">
<path d="M166.828 247.346C165.469 247.218 164.106 247.509 162.912 248.184C161.718 248.858 160.747 249.886 160.121 251.137C159.494 252.387 159.242 253.805 159.394 255.21C159.547 256.615 160.098 257.945 160.978 259.031C161.858 260.117 163.028 260.91 164.338 261.311C165.649 261.711 167.043 261.701 168.342 261.282C169.642 260.862 170.79 260.052 171.641 258.954C172.491 257.855 173.006 256.518 173.121 255.111C173.273 253.225 172.696 251.348 171.516 249.892C170.336 248.436 168.651 247.521 166.828 247.346ZM165.862 259.203C164.955 259.117 164.092 258.755 163.381 258.163C162.67 257.57 162.143 256.774 161.867 255.875C161.591 254.975 161.578 254.013 161.83 253.11C162.082 252.206 162.587 251.403 163.282 250.8C163.977 250.197 164.83 249.823 165.734 249.724C166.637 249.625 167.551 249.807 168.359 250.245C169.167 250.683 169.833 251.359 170.273 252.186C170.713 253.014 170.907 253.956 170.83 254.894C170.728 256.152 170.147 257.313 169.215 258.121C168.283 258.929 167.077 259.318 165.862 259.203ZM178.997 256.245C178.884 256.069 178.836 255.861 178.853 255.654C178.87 255.447 178.951 255.25 179.091 255.098L181.236 252.773C181.36 252.638 181.452 252.476 181.503 252.297C181.555 252.119 181.565 251.93 181.534 251.747C181.295 250.351 180.877 248.993 180.293 247.709C180.217 247.541 180.103 247.393 179.962 247.278C179.822 247.163 179.657 247.083 179.481 247.045L176.428 246.398C176.228 246.355 176.047 246.239 175.917 246.079C175.793 245.926 175.72 245.74 175.714 245.544L175.61 242.284C175.605 242.099 175.557 241.917 175.472 241.754C175.386 241.59 175.265 241.449 175.119 241.342C173.998 240.524 172.778 239.862 171.491 239.375C171.322 239.311 171.14 239.289 170.962 239.31C170.783 239.332 170.612 239.397 170.462 239.5L167.876 241.273C167.711 241.386 167.512 241.437 167.312 241.418C167.112 241.399 166.924 241.311 166.78 241.169L164.514 238.929C164.383 238.8 164.225 238.704 164.053 238.649C163.88 238.595 163.698 238.583 163.521 238.614C162.175 238.853 160.867 239.275 159.63 239.871C159.469 239.949 159.327 240.065 159.217 240.21C159.107 240.355 159.031 240.525 158.995 240.707L158.387 243.893C158.35 244.087 158.245 244.261 158.097 244.39C157.944 244.522 157.752 244.599 157.549 244.604L154.426 244.679C154.247 244.683 154.072 244.731 153.915 244.818C153.757 244.906 153.622 245.03 153.52 245.181C152.738 246.337 152.107 247.595 151.646 248.924C151.585 249.099 151.565 249.287 151.587 249.473C151.609 249.658 151.673 249.835 151.774 249.991L153.499 252.675C153.613 252.852 153.665 253.06 153.648 253.267C153.631 253.475 153.546 253.67 153.406 253.822L151.264 256.148C151.141 256.283 151.049 256.446 150.998 256.624C150.946 256.802 150.936 256.991 150.967 257.175C151.206 258.57 151.624 259.928 152.208 261.213C152.284 261.381 152.398 261.528 152.538 261.643C152.679 261.759 152.844 261.838 153.019 261.876L156.073 262.523C156.273 262.566 156.454 262.682 156.584 262.842C156.708 262.995 156.78 263.182 156.786 263.378L156.886 266.636C156.892 266.822 156.939 267.004 157.025 267.167C157.11 267.331 157.231 267.472 157.378 267.579C158.499 268.397 159.719 269.058 161.005 269.546C161.175 269.61 161.356 269.632 161.535 269.61C161.714 269.589 161.885 269.524 162.034 269.421L164.621 267.648C164.785 267.535 164.985 267.488 165.184 267.507C165.384 267.526 165.573 267.61 165.716 267.752L167.983 269.996C168.113 270.125 168.271 270.221 168.444 270.276C168.616 270.33 168.798 270.343 168.976 270.311C170.322 270.073 171.63 269.651 172.866 269.054C173.028 268.976 173.169 268.86 173.279 268.715C173.39 268.57 173.466 268.4 173.501 268.218L174.108 265.038C174.145 264.845 174.251 264.67 174.399 264.542C174.552 264.409 174.743 264.332 174.946 264.326L178.07 264.242C178.249 264.238 178.425 264.19 178.582 264.103C178.739 264.015 178.875 263.891 178.977 263.74C179.759 262.584 180.389 261.326 180.851 259.996C180.912 259.821 180.932 259.634 180.909 259.448C180.887 259.263 180.823 259.085 180.723 258.93L178.997 256.245ZM176.594 254.792C176.595 254.792 176.596 254.793 176.596 254.794C176.585 255.224 176.55 255.653 176.491 256.078C176.45 256.37 176.515 256.668 176.674 256.914L177.848 258.736C178.251 259.362 178.34 260.149 178.011 260.808C177.67 261.49 176.958 261.883 176.194 261.9L174.151 261.946C173.867 261.952 173.595 262.066 173.389 262.268C173.087 262.563 172.769 262.839 172.436 263.095C172.208 263.27 172.051 263.526 171.996 263.815L171.579 266.001C171.444 266.706 170.974 267.309 170.293 267.531C169.585 267.762 168.816 267.526 168.28 266.996L166.772 265.504C166.582 265.316 166.337 265.201 166.077 265.177L166.008 265.17C165.592 265.156 165.177 265.117 164.765 265.052C164.484 265.008 164.196 265.073 163.96 265.236L162.228 266.423C161.614 266.844 160.818 266.931 160.158 266.57C159.524 266.224 159.158 265.544 159.138 264.824L159.076 262.593C159.069 262.298 158.956 262.016 158.76 261.801C158.473 261.487 158.204 261.155 157.955 260.808C157.784 260.571 157.536 260.407 157.256 260.348L155.256 259.923C154.505 259.764 153.867 259.243 153.642 258.507C153.424 257.797 153.639 257.04 154.137 256.499L155.589 254.924C155.785 254.711 155.898 254.43 155.905 254.135C155.915 253.704 155.95 253.275 156.009 252.849C156.05 252.557 155.985 252.259 155.827 252.013L154.652 250.186C154.249 249.559 154.16 248.773 154.49 248.113C154.831 247.431 155.543 247.038 156.308 247.021L158.346 246.975C158.63 246.969 158.902 246.854 159.108 246.653C159.409 246.358 159.728 246.082 160.061 245.826C160.29 245.651 160.447 245.394 160.502 245.105L160.919 242.92C161.054 242.215 161.524 241.612 162.205 241.39C162.913 241.159 163.682 241.395 164.218 241.925L165.726 243.417C165.933 243.622 166.205 243.74 166.49 243.749C166.906 243.763 167.321 243.803 167.733 243.867C168.015 243.911 168.302 243.846 168.538 243.683L170.268 242.497C170.882 242.076 171.678 241.989 172.339 242.35C172.973 242.697 173.339 243.377 173.359 244.097L173.421 246.328C173.428 246.622 173.541 246.904 173.737 247.119C174.024 247.434 174.292 247.766 174.542 248.113C174.712 248.35 174.961 248.514 175.24 248.573L177.24 248.996C177.991 249.155 178.63 249.676 178.855 250.412C179.073 251.123 178.858 251.88 178.36 252.42L176.908 253.995C176.71 254.209 176.597 254.492 176.592 254.789C176.592 254.791 176.592 254.792 176.594 254.792Z" fill="#2C395E"/>
<path d="M167.998 276.203C166.637 276.203 165.307 276.624 164.176 277.411C163.044 278.199 162.163 279.318 161.642 280.628C161.121 281.937 160.985 283.379 161.25 284.769C161.516 286.159 162.171 287.436 163.133 288.439C164.095 289.441 165.321 290.124 166.656 290.4C167.99 290.677 169.373 290.535 170.631 289.992C171.888 289.45 172.962 288.531 173.718 287.353C174.474 286.174 174.878 284.788 174.878 283.371C174.876 281.47 174.15 279.648 172.86 278.305C171.571 276.961 169.822 276.205 167.998 276.203ZM167.998 288.149C167.091 288.149 166.204 287.869 165.45 287.344C164.696 286.818 164.108 286.072 163.761 285.199C163.413 284.326 163.323 283.365 163.5 282.438C163.676 281.512 164.113 280.66 164.755 279.992C165.396 279.324 166.213 278.869 167.103 278.684C167.993 278.5 168.915 278.594 169.753 278.956C170.591 279.318 171.307 279.93 171.811 280.716C172.315 281.502 172.584 282.426 172.584 283.371C172.584 284.638 172.101 285.853 171.241 286.749C170.381 287.645 169.214 288.149 167.998 288.149ZM180.611 283.693C180.616 283.478 180.616 283.263 180.611 283.048L182.749 280.265C182.861 280.119 182.939 279.947 182.976 279.764C183.012 279.581 183.007 279.391 182.961 279.211C182.611 277.838 182.086 276.52 181.402 275.291C181.312 275.13 181.188 274.993 181.038 274.891C180.889 274.79 180.719 274.725 180.542 274.704L177.142 274.31C177.001 274.155 176.857 274.005 176.712 273.862L176.311 270.311C176.29 270.126 176.228 269.949 176.13 269.793C176.032 269.638 175.901 269.508 175.746 269.415C174.566 268.703 173.301 268.158 171.984 267.792C171.81 267.744 171.628 267.739 171.452 267.778C171.277 267.816 171.112 267.898 170.972 268.015L168.307 270.23H167.688L165.017 268.007C164.876 267.89 164.712 267.809 164.536 267.771C164.36 267.733 164.178 267.738 164.005 267.786C162.687 268.152 161.422 268.698 160.242 269.411C160.088 269.504 159.957 269.634 159.859 269.789C159.761 269.945 159.7 270.122 159.679 270.307L159.301 273.854C159.152 274.003 159.008 274.152 158.871 274.302L155.463 274.71C155.285 274.732 155.115 274.796 154.966 274.898C154.816 275 154.692 275.137 154.603 275.298C153.919 276.528 153.395 277.846 153.045 279.218C152.998 279.399 152.994 279.588 153.031 279.772C153.068 279.955 153.146 280.126 153.258 280.272L155.385 283.048V283.693L153.251 286.476C153.139 286.623 153.061 286.794 153.024 286.977C152.988 287.16 152.993 287.35 153.039 287.531C153.389 288.903 153.914 290.222 154.598 291.45C154.688 291.611 154.812 291.748 154.962 291.85C155.111 291.952 155.281 292.016 155.458 292.037L158.858 292.431C159 292.587 159.144 292.736 159.288 292.879L159.685 296.43C159.706 296.615 159.767 296.792 159.865 296.948C159.963 297.103 160.095 297.233 160.25 297.326C161.429 298.038 162.695 298.583 164.012 298.949C164.186 298.997 164.368 299.002 164.543 298.963C164.719 298.925 164.884 298.844 165.024 298.727L167.688 296.511C167.895 296.517 168.101 296.517 168.307 296.511L170.979 298.739C171.119 298.855 171.284 298.936 171.46 298.975C171.635 299.013 171.817 299.008 171.991 298.96C173.309 298.594 174.574 298.048 175.753 297.335C175.908 297.242 176.039 297.112 176.137 296.956C176.234 296.801 176.296 296.624 176.317 296.439L176.695 292.897C176.844 292.75 176.987 292.601 177.125 292.449L180.533 292.031C180.711 292.01 180.881 291.945 181.03 291.843C181.179 291.741 181.304 291.604 181.393 291.443C182.076 290.214 182.6 288.896 182.951 287.523C182.997 287.342 183.002 287.153 182.965 286.97C182.928 286.786 182.85 286.615 182.738 286.469L180.611 283.693ZM178.303 282.723C178.327 283.154 178.327 283.587 178.303 284.019C178.286 284.314 178.375 284.606 178.552 284.837L180.586 287.484C180.353 288.257 180.054 289.007 179.693 289.724L176.454 290.106C176.172 290.139 175.912 290.279 175.723 290.501C175.447 290.824 175.153 291.13 174.843 291.417C174.631 291.614 174.496 291.885 174.465 292.179L174.105 295.551C173.416 295.927 172.697 296.238 171.955 296.481L169.412 294.362C169.209 294.193 168.956 294.1 168.696 294.101H168.627C168.213 294.126 167.797 294.126 167.383 294.101C167.099 294.083 166.819 294.175 166.598 294.36L164.049 296.481C163.308 296.238 162.588 295.926 161.899 295.551L161.532 292.18C161.501 291.887 161.366 291.615 161.154 291.419C160.844 291.131 160.55 290.825 160.274 290.502C160.086 290.281 159.825 290.14 159.543 290.108L156.307 289.732C155.946 289.014 155.647 288.265 155.414 287.492L157.448 284.843C157.625 284.612 157.714 284.32 157.697 284.025C157.673 283.593 157.673 283.16 157.697 282.729C157.714 282.433 157.625 282.141 157.448 281.91L155.414 279.257C155.647 278.484 155.946 277.735 156.307 277.017L159.542 276.635C159.824 276.602 160.084 276.462 160.273 276.241C160.548 275.917 160.842 275.611 161.153 275.324C161.366 275.127 161.501 274.855 161.532 274.561L161.892 271.191C162.581 270.815 163.3 270.503 164.042 270.26L166.585 272.379C166.807 272.564 167.086 272.657 167.37 272.639C167.784 272.614 168.2 272.614 168.614 272.639C168.898 272.657 169.178 272.564 169.4 272.379L171.946 270.26C172.688 270.503 173.408 270.815 174.096 271.191L174.463 274.561C174.495 274.855 174.629 275.126 174.842 275.322C175.152 275.61 175.446 275.916 175.722 276.239C175.91 276.46 176.171 276.601 176.453 276.633L179.689 277.008C180.05 277.726 180.349 278.475 180.582 279.248L178.548 281.897C178.369 282.13 178.28 282.424 178.299 282.723H178.303Z" fill="#2C395E"/>
<path d="M140.18 263.162C138.84 263.408 137.6 264.062 136.617 265.043C135.634 266.023 134.952 267.285 134.658 268.669C134.363 270.053 134.469 271.497 134.962 272.818C135.456 274.139 136.314 275.278 137.428 276.091C138.543 276.904 139.864 277.355 141.224 277.386C142.585 277.417 143.923 277.027 145.071 276.265C146.218 275.503 147.123 274.404 147.671 273.107C148.219 271.809 148.386 270.371 148.15 268.975C147.831 267.104 146.813 265.441 145.319 264.351C143.825 263.261 141.976 262.834 140.18 263.162ZM142.171 274.926C141.277 275.09 140.357 274.974 139.527 274.594C138.697 274.213 137.994 273.584 137.506 272.787C137.019 271.99 136.769 271.061 136.789 270.116C136.809 269.171 137.097 268.253 137.617 267.479C138.138 266.705 138.867 266.109 139.712 265.767C140.557 265.424 141.481 265.351 142.367 265.555C143.253 265.76 144.06 266.233 144.687 266.916C145.315 267.598 145.734 268.46 145.891 269.39C146.102 270.638 145.829 271.923 145.131 272.961C144.434 273.999 143.369 274.706 142.171 274.926ZM153.849 268.256C153.819 268.043 153.783 267.831 153.742 267.621L155.384 264.493C155.47 264.329 155.518 264.146 155.523 263.959C155.529 263.772 155.493 263.586 155.417 263.416C154.843 262.128 154.107 260.924 153.228 259.838C153.113 259.696 152.968 259.584 152.804 259.511C152.64 259.437 152.461 259.405 152.283 259.416L148.869 259.643C148.704 259.515 148.538 259.394 148.371 259.279L147.384 255.855C147.333 255.677 147.243 255.513 147.12 255.378C146.998 255.243 146.847 255.139 146.679 255.075C145.398 254.587 144.061 254.279 142.703 254.157C142.524 254.141 142.344 254.169 142.177 254.239C142.011 254.309 141.862 254.419 141.744 254.559L139.489 257.224L138.879 257.336L135.878 255.629C135.72 255.54 135.544 255.49 135.365 255.484C135.185 255.478 135.007 255.516 134.844 255.595C133.608 256.193 132.453 256.96 131.41 257.875C131.274 257.995 131.166 258.147 131.095 258.317C131.025 258.488 130.994 258.674 131.005 258.859L131.223 262.422C131.101 262.595 130.985 262.768 130.874 262.941L127.586 263.959C127.415 264.012 127.258 264.106 127.128 264.234C126.998 264.362 126.898 264.519 126.837 264.694C126.369 266.028 126.073 267.421 125.956 268.836C125.941 269.022 125.968 269.21 126.035 269.383C126.102 269.557 126.207 269.712 126.342 269.835L128.899 272.184L129.007 272.819L127.369 275.947C127.283 276.111 127.235 276.294 127.23 276.481C127.224 276.668 127.26 276.853 127.336 277.023C127.91 278.312 128.646 279.515 129.525 280.601C129.64 280.743 129.785 280.855 129.949 280.929C130.113 281.002 130.292 281.034 130.47 281.023L133.883 280.797C134.05 280.924 134.216 281.045 134.382 281.16L135.364 284.585C135.416 284.763 135.506 284.927 135.628 285.062C135.751 285.198 135.902 285.301 136.07 285.365C137.35 285.853 138.687 286.161 140.046 286.283C140.225 286.299 140.405 286.271 140.571 286.201C140.738 286.131 140.887 286.021 141.005 285.881L143.26 283.217C143.464 283.185 143.667 283.148 143.869 283.105L146.872 284.815C147.029 284.905 147.205 284.955 147.384 284.961C147.564 284.967 147.742 284.929 147.905 284.85C149.142 284.252 150.297 283.485 151.339 282.569C151.476 282.449 151.584 282.298 151.654 282.127C151.724 281.956 151.755 281.771 151.745 281.585L151.527 278.029C151.649 277.856 151.766 277.683 151.876 277.51L155.163 276.481C155.334 276.428 155.491 276.334 155.621 276.206C155.751 276.079 155.85 275.921 155.912 275.746C156.38 274.412 156.676 273.019 156.793 271.604C156.808 271.418 156.781 271.23 156.714 271.057C156.647 270.883 156.542 270.728 156.407 270.605L153.849 268.256ZM151.415 267.718C151.511 268.138 151.583 268.564 151.631 268.994C151.663 269.288 151.8 269.559 152.013 269.755L154.457 271.994C154.356 272.797 154.187 273.589 153.951 274.361L150.825 275.324C150.552 275.407 150.319 275.592 150.171 275.844C149.953 276.212 149.715 276.567 149.457 276.906C149.281 277.138 149.193 277.43 149.211 277.725L149.419 281.11C148.803 281.605 148.147 282.042 147.457 282.415L144.6 280.789C144.371 280.659 144.107 280.614 143.85 280.661L143.782 280.673C143.379 280.773 142.97 280.848 142.557 280.898C142.275 280.932 142.015 281.074 141.827 281.296L139.671 283.845C138.9 283.74 138.14 283.564 137.399 283.318L136.476 280.066C136.396 279.782 136.218 279.539 135.976 279.384C135.622 279.157 135.282 278.909 134.956 278.64C134.734 278.457 134.454 278.366 134.171 278.385L130.921 278.599C130.446 277.958 130.027 277.274 129.668 276.555L131.23 273.579C131.366 273.319 131.405 273.016 131.339 272.728C131.243 272.307 131.171 271.881 131.123 271.451C131.09 271.157 130.954 270.886 130.741 270.691L128.296 268.445C128.397 267.642 128.566 266.85 128.802 266.078L131.924 265.116C132.196 265.033 132.429 264.848 132.578 264.596C132.796 264.228 133.034 263.873 133.292 263.534C133.469 263.302 133.557 263.01 133.539 262.714L133.331 259.33C133.947 258.835 134.603 258.398 135.293 258.025L138.151 259.651C138.4 259.793 138.691 259.834 138.967 259.765C139.371 259.665 139.78 259.59 140.193 259.54C140.475 259.506 140.735 259.364 140.923 259.142L143.078 256.595C143.849 256.7 144.609 256.876 145.35 257.122L146.273 260.374C146.353 260.658 146.531 260.901 146.773 261.056C147.126 261.283 147.467 261.531 147.792 261.8C148.015 261.983 148.295 262.074 148.578 262.056L151.827 261.839C152.302 262.48 152.722 263.165 153.08 263.883L151.519 266.86C151.381 267.122 151.342 267.428 151.411 267.718L151.415 267.718Z" fill="#2C395E"/>
<path d="M189.428 278.15H188.579V259.792H189.428V278.15ZM210.824 267.044C210.824 268.547 210.498 269.799 209.844 270.8C209.198 271.795 208.313 272.543 207.188 273.044C206.062 273.537 204.785 273.784 203.355 273.784H197.388V273.403C197.947 273.403 198.361 273.352 198.629 273.25C198.898 273.149 199.072 272.956 199.152 272.673C199.239 272.39 199.282 271.976 199.282 271.432V262.786C199.282 262.22 199.242 261.796 199.163 261.512C199.09 261.222 198.919 261.03 198.651 260.935C198.382 260.834 197.961 260.783 197.388 260.783V260.434H202.81C203.936 260.434 204.981 260.543 205.946 260.761C206.919 260.972 207.768 261.327 208.494 261.828C209.227 262.322 209.797 262.997 210.204 263.853C210.618 264.703 210.824 265.766 210.824 267.044ZM208.603 267.12C208.603 266.024 208.396 265.026 207.982 264.126C207.576 263.226 206.973 262.511 206.175 261.981C205.376 261.443 204.393 261.175 203.224 261.175C202.876 261.175 202.531 261.204 202.19 261.262C201.856 261.313 201.518 261.385 201.177 261.48V272.815C201.518 272.902 201.867 272.975 202.222 273.033C202.578 273.091 202.926 273.12 203.268 273.12C204.429 273.12 205.405 272.848 206.197 272.303C206.988 271.751 207.587 271.022 207.993 270.114C208.4 269.207 208.603 268.209 208.603 267.12ZM223.488 270.441L222.312 273.784H212.044V273.403C212.596 273.403 213.006 273.352 213.274 273.25C213.543 273.149 213.721 272.956 213.808 272.673C213.895 272.39 213.939 271.976 213.939 271.432V262.732C213.939 262.173 213.899 261.756 213.819 261.48C213.739 261.204 213.565 261.019 213.296 260.924C213.035 260.83 212.617 260.783 212.044 260.783V260.434H222.312L222.464 263.342H222.105C221.953 262.768 221.804 262.325 221.659 262.013C221.513 261.694 221.281 261.473 220.962 261.349C220.65 261.218 220.163 261.153 219.503 261.153H215.811V266.423H218.751C219.296 266.423 219.706 266.372 219.982 266.271C220.258 266.162 220.457 265.97 220.581 265.694C220.704 265.411 220.802 265.011 220.875 264.496H221.234V269.156H220.875C220.802 268.634 220.708 268.231 220.592 267.948C220.475 267.657 220.279 267.458 220.004 267.349C219.728 267.233 219.31 267.175 218.751 267.175H215.811V271.563C215.811 272.078 215.862 272.459 215.964 272.706C216.065 272.946 216.392 273.065 216.944 273.065H219.187C219.964 273.065 220.566 272.978 220.994 272.804C221.43 272.63 221.793 272.35 222.083 271.966C222.381 271.581 222.708 271.073 223.063 270.441H223.488ZM234.05 270.365C234.05 271.134 233.85 271.802 233.451 272.368C233.052 272.927 232.533 273.359 231.894 273.664C231.262 273.962 230.584 274.111 229.858 274.111C229.386 274.111 228.914 274.045 228.442 273.915C227.978 273.784 227.553 273.653 227.168 273.523C226.791 273.392 226.49 273.327 226.265 273.327C226.047 273.327 225.894 273.414 225.807 273.588C225.727 273.762 225.677 273.936 225.655 274.111H225.295V269.494H225.655C225.793 270.634 226.192 271.559 226.853 272.27C227.52 272.975 228.45 273.327 229.64 273.327C230.068 273.327 230.486 273.247 230.892 273.087C231.299 272.92 231.633 272.673 231.894 272.347C232.155 272.02 232.286 271.613 232.286 271.127C232.286 270.612 232.115 270.162 231.774 269.777C231.433 269.392 230.994 269.04 230.457 268.721C229.92 268.394 229.346 268.071 228.736 267.752C228.134 267.432 227.564 267.084 227.027 266.706C226.49 266.329 226.05 265.893 225.709 265.4C225.368 264.906 225.197 264.322 225.197 263.647C225.197 262.913 225.379 262.286 225.742 261.763C226.105 261.24 226.58 260.841 227.168 260.565C227.756 260.282 228.391 260.14 229.074 260.14C229.473 260.14 229.872 260.202 230.272 260.326C230.671 260.449 231.034 260.576 231.36 260.707C231.694 260.83 231.959 260.892 232.155 260.892C232.359 260.892 232.507 260.805 232.602 260.63C232.696 260.449 232.761 260.286 232.798 260.14H233.179V264.746H232.798C232.74 264.049 232.558 263.411 232.253 262.83C231.956 262.249 231.542 261.785 231.012 261.436C230.489 261.088 229.851 260.914 229.096 260.914C228.704 260.914 228.326 260.997 227.963 261.164C227.607 261.331 227.313 261.567 227.081 261.872C226.856 262.177 226.744 262.536 226.744 262.95C226.744 263.436 226.918 263.864 227.266 264.235C227.622 264.605 228.076 264.946 228.627 265.258C229.186 265.57 229.774 265.886 230.391 266.205C231.016 266.518 231.604 266.866 232.155 267.251C232.714 267.628 233.168 268.067 233.516 268.568C233.872 269.069 234.05 269.668 234.05 270.365ZM247.007 270.441L245.831 273.784H235.563V273.403C236.115 273.403 236.525 273.352 236.794 273.25C237.062 273.149 237.24 272.956 237.327 272.673C237.415 272.39 237.458 271.976 237.458 271.432V262.732C237.458 262.173 237.418 261.756 237.338 261.48C237.258 261.204 237.084 261.019 236.816 260.924C236.554 260.83 236.137 260.783 235.563 260.783V260.434H245.831L245.984 263.342H245.625C245.472 262.768 245.323 262.325 245.178 262.013C245.033 261.694 244.801 261.473 244.481 261.349C244.169 261.218 243.683 261.153 243.022 261.153H239.331V266.423H242.271C242.815 266.423 243.225 266.372 243.501 266.271C243.777 266.162 243.977 265.97 244.1 265.694C244.224 265.411 244.322 265.011 244.394 264.496H244.754V269.156H244.394C244.322 268.634 244.227 268.231 244.111 267.948C243.995 267.657 243.799 267.458 243.523 267.349C243.247 267.233 242.83 267.175 242.271 267.175H239.331V271.563C239.331 272.078 239.382 272.459 239.483 272.706C239.585 272.946 239.912 273.065 240.463 273.065H242.706C243.483 273.065 244.086 272.978 244.514 272.804C244.95 272.63 245.312 272.35 245.603 271.966C245.9 271.581 246.227 271.073 246.583 270.441H247.007ZM261.729 260.434V260.783C261.17 260.783 260.753 260.834 260.477 260.935C260.208 261.037 260.03 261.229 259.943 261.512C259.863 261.788 259.823 262.195 259.823 262.732V273.991H259.475L250.644 263.244V271.454C250.644 272.005 250.684 272.423 250.764 272.706C250.844 272.982 251.018 273.167 251.287 273.261C251.563 273.356 251.98 273.403 252.539 273.403V273.784H247.889V273.403C248.441 273.403 248.851 273.352 249.12 273.25C249.388 273.149 249.566 272.96 249.653 272.684C249.741 272.401 249.784 271.991 249.784 271.454V262.166C249.45 261.716 249.142 261.375 248.859 261.142C248.583 260.903 248.144 260.783 247.541 260.783V260.434H250.808L258.974 270.441V262.732C258.974 262.195 258.931 261.788 258.843 261.512C258.756 261.229 258.575 261.037 258.299 260.935C258.03 260.834 257.617 260.783 257.058 260.783V260.434H261.729ZM276.32 260.434V260.783C275.761 260.877 275.336 261.095 275.046 261.436C274.763 261.777 274.516 262.198 274.305 262.699L269.656 274.111H269.307L264.299 262.569C264.059 262.01 263.809 261.589 263.547 261.306C263.286 261.022 262.832 260.848 262.186 260.783V260.434H267.62V260.783C267.431 260.797 267.22 260.83 266.988 260.881C266.756 260.924 266.556 261.008 266.389 261.131C266.222 261.255 266.139 261.447 266.139 261.708C266.139 261.955 266.182 262.198 266.27 262.438C266.357 262.67 266.466 262.939 266.596 263.244L269.993 271.051L273.162 263.287C273.242 263.106 273.336 262.859 273.445 262.547C273.561 262.227 273.619 261.966 273.619 261.763C273.619 261.531 273.536 261.349 273.369 261.218C273.209 261.088 273.017 260.993 272.792 260.935C272.574 260.87 272.374 260.819 272.193 260.783V260.434H276.32ZM290.355 267.044C290.355 267.995 290.199 268.895 289.887 269.744C289.582 270.594 289.139 271.349 288.559 272.009C287.985 272.662 287.296 273.178 286.49 273.555C285.684 273.926 284.788 274.111 283.8 274.111C282.472 274.111 281.318 273.791 280.338 273.152C279.365 272.506 278.61 271.65 278.073 270.583C277.536 269.516 277.267 268.343 277.267 267.066C277.267 265.781 277.55 264.616 278.116 263.57C278.69 262.518 279.477 261.683 280.479 261.066C281.481 260.449 282.639 260.14 283.953 260.14C284.918 260.14 285.793 260.326 286.577 260.696C287.361 261.059 288.032 261.563 288.591 262.209C289.158 262.848 289.593 263.581 289.898 264.409C290.203 265.236 290.355 266.115 290.355 267.044ZM288.112 267.175C288.112 266.441 288.051 265.701 287.927 264.953C287.811 264.206 287.597 263.523 287.285 262.906C286.973 262.282 286.53 261.781 285.956 261.404C285.39 261.026 284.653 260.837 283.746 260.837C282.911 260.837 282.218 261.03 281.666 261.414C281.122 261.792 280.693 262.289 280.381 262.906C280.069 263.523 279.848 264.191 279.717 264.91C279.594 265.628 279.532 266.329 279.532 267.011C279.532 267.679 279.597 268.383 279.728 269.124C279.859 269.864 280.08 270.557 280.392 271.203C280.712 271.849 281.143 272.376 281.688 272.782C282.24 273.181 282.933 273.381 283.768 273.381C284.646 273.381 285.368 273.196 285.934 272.826C286.501 272.456 286.94 271.966 287.252 271.356C287.571 270.746 287.793 270.078 287.916 269.352C288.047 268.619 288.112 267.893 288.112 267.175ZM303.041 270.136L301.897 273.784H291.52V273.403C292.145 273.403 292.624 273.305 292.958 273.109C293.299 272.913 293.469 272.459 293.469 271.748V262.471C293.469 261.767 293.299 261.313 292.958 261.11C292.624 260.906 292.145 260.805 291.52 260.805V260.434H297.324V260.805C296.685 260.805 296.195 260.906 295.854 261.11C295.513 261.313 295.342 261.767 295.342 262.471V271.258C295.342 271.918 295.458 272.361 295.691 272.586C295.923 272.811 296.369 272.924 297.03 272.924H298.369C299.226 272.924 299.908 272.851 300.416 272.706C300.925 272.561 301.346 272.285 301.679 271.878C302.021 271.472 302.362 270.873 302.703 270.082L303.041 270.136ZM317.762 260.434V260.783C317.203 260.877 316.778 261.095 316.488 261.436C316.205 261.777 315.958 262.198 315.748 262.699L311.098 274.111H310.75L305.741 262.569C305.501 262.01 305.251 261.589 304.99 261.306C304.728 261.022 304.275 260.848 303.629 260.783V260.434H309.062V260.783C308.873 260.797 308.663 260.83 308.43 260.881C308.198 260.924 307.999 261.008 307.832 261.131C307.665 261.255 307.581 261.447 307.581 261.708C307.581 261.955 307.625 262.198 307.712 262.438C307.799 262.67 307.908 262.939 308.038 263.244L311.436 271.051L314.604 263.287C314.684 263.106 314.779 262.859 314.887 262.547C315.004 262.227 315.062 261.966 315.062 261.763C315.062 261.531 314.978 261.349 314.811 261.218C314.652 261.088 314.459 260.993 314.234 260.935C314.016 260.87 313.817 260.819 313.635 260.783V260.434H317.762ZM329.892 270.441L328.716 273.784H318.448V273.403C319 273.403 319.41 273.352 319.678 273.25C319.947 273.149 320.125 272.956 320.212 272.673C320.299 272.39 320.343 271.976 320.343 271.432V262.732C320.343 262.173 320.303 261.756 320.223 261.48C320.143 261.204 319.969 261.019 319.7 260.924C319.439 260.83 319.022 260.783 318.448 260.783V260.434H328.716L328.869 263.342H328.509C328.357 262.768 328.208 262.325 328.063 262.013C327.918 261.694 327.685 261.473 327.366 261.349C327.054 261.218 326.567 261.153 325.907 261.153H322.216V266.423H325.155C325.7 266.423 326.11 266.372 326.386 266.271C326.662 266.162 326.861 265.97 326.985 265.694C327.108 265.411 327.206 265.011 327.279 264.496H327.638V269.156H327.279C327.206 268.634 327.112 268.231 326.996 267.948C326.88 267.657 326.684 267.458 326.408 267.349C326.132 267.233 325.714 267.175 325.155 267.175H322.216V271.563C322.216 272.078 322.266 272.459 322.368 272.706C322.47 272.946 322.796 273.065 323.348 273.065H325.591C326.368 273.065 326.97 272.978 327.399 272.804C327.834 272.63 328.197 272.35 328.487 271.966C328.785 271.581 329.112 271.073 329.467 270.441H329.892ZM344.102 267.044C344.102 268.547 343.775 269.799 343.122 270.8C342.476 271.795 341.59 272.543 340.465 273.044C339.34 273.537 338.062 273.784 336.632 273.784H330.665V273.403C331.224 273.403 331.638 273.352 331.906 273.25C332.175 273.149 332.349 272.956 332.429 272.673C332.516 272.39 332.56 271.976 332.56 271.432V262.786C332.56 262.22 332.52 261.796 332.44 261.512C332.367 261.222 332.197 261.03 331.928 260.935C331.66 260.834 331.239 260.783 330.665 260.783V260.434H336.088C337.213 260.434 338.258 260.543 339.224 260.761C340.196 260.972 341.046 261.327 341.772 261.828C342.505 262.322 343.075 262.997 343.481 263.853C343.895 264.703 344.102 265.766 344.102 267.044ZM341.88 267.12C341.88 266.024 341.674 265.026 341.26 264.126C340.853 263.226 340.251 262.511 339.452 261.981C338.654 261.443 337.67 261.175 336.501 261.175C336.153 261.175 335.808 261.204 335.467 261.262C335.133 261.313 334.796 261.385 334.454 261.48V272.815C334.796 272.902 335.144 272.975 335.5 273.033C335.855 273.091 336.204 273.12 336.545 273.12C337.706 273.12 338.683 272.848 339.474 272.303C340.265 271.751 340.864 271.022 341.271 270.114C341.677 269.207 341.88 268.209 341.88 267.12ZM358.671 267.044C358.671 267.995 358.515 268.895 358.203 269.744C357.898 270.594 357.455 271.349 356.874 272.009C356.301 272.662 355.611 273.178 354.805 273.555C354 273.926 353.103 274.111 352.116 274.111C350.787 274.111 349.633 273.791 348.653 273.152C347.681 272.506 346.926 271.65 346.388 270.583C345.851 269.516 345.583 268.343 345.583 267.066C345.583 265.781 345.866 264.616 346.432 263.57C347.005 262.518 347.793 261.683 348.795 261.066C349.797 260.449 350.954 260.14 352.268 260.14C353.234 260.14 354.108 260.326 354.892 260.696C355.676 261.059 356.348 261.563 356.907 262.209C357.473 262.848 357.909 263.581 358.213 264.409C358.518 265.236 358.671 266.115 358.671 267.044ZM356.428 267.175C356.428 266.441 356.366 265.701 356.243 264.953C356.126 264.206 355.912 263.523 355.6 262.906C355.288 262.282 354.845 261.781 354.272 261.404C353.706 261.026 352.969 260.837 352.061 260.837C351.227 260.837 350.533 261.03 349.982 261.414C349.437 261.792 349.009 262.289 348.697 262.906C348.385 263.523 348.163 264.191 348.033 264.91C347.909 265.628 347.847 266.329 347.847 267.011C347.847 267.679 347.913 268.383 348.043 269.124C348.174 269.864 348.396 270.557 348.708 271.203C349.027 271.849 349.459 272.376 350.003 272.782C350.555 273.181 351.248 273.381 352.083 273.381C352.962 273.381 353.684 273.196 354.25 272.826C354.816 272.456 355.255 271.966 355.568 271.356C355.887 270.746 356.108 270.078 356.232 269.352C356.362 268.619 356.428 267.893 356.428 267.175ZM373.098 273.784H369.516L364.997 267.556C364.75 267.577 364.489 267.588 364.213 267.588C364.097 267.588 363.984 267.588 363.876 267.588C363.774 267.581 363.672 267.574 363.571 267.567V271.432C363.571 271.976 363.614 272.39 363.701 272.673C363.796 272.956 363.984 273.149 364.268 273.25C364.551 273.352 364.972 273.403 365.531 273.403V273.784H359.803V273.403C360.377 273.403 360.798 273.352 361.066 273.25C361.335 273.149 361.505 272.956 361.578 272.673C361.658 272.39 361.698 271.976 361.698 271.432V262.786C361.698 262.227 361.658 261.806 361.578 261.523C361.505 261.233 361.335 261.037 361.066 260.935C360.798 260.834 360.377 260.783 359.803 260.783V260.434H364.834C365.415 260.434 366.017 260.471 366.641 260.543C367.273 260.616 367.857 260.768 368.394 261.001C368.939 261.233 369.378 261.578 369.712 262.035C370.046 262.485 370.213 263.091 370.213 263.853C370.213 264.87 369.901 265.646 369.276 266.184C368.652 266.714 367.875 267.077 366.946 267.273L369.668 271.127C370.155 271.802 370.634 272.332 371.106 272.717C371.577 273.094 372.242 273.323 373.098 273.403V273.784ZM368.013 264.006C368.013 263.149 367.745 262.463 367.208 261.948C366.678 261.433 365.984 261.175 365.128 261.175C364.874 261.175 364.616 261.193 364.355 261.229C364.101 261.266 363.839 261.306 363.571 261.349V266.881C363.694 266.902 363.883 266.913 364.137 266.913C364.776 266.913 365.389 266.826 365.977 266.652C366.572 266.47 367.059 266.169 367.436 265.748C367.821 265.327 368.013 264.746 368.013 264.006Z" fill="#2C395E"/>
<path d="M89.018 225V222.89H91.761C95.559 222.89 98.724 222.327 101.256 221.202C103.929 220.077 105.898 218.389 107.164 216.138C108.43 213.887 109.063 211.074 109.063 207.698V90.804C109.063 87.5687 108.43 84.896 107.164 82.786C105.898 80.676 103.929 79.1287 101.256 78.144C98.724 77.0187 95.559 76.456 91.761 76.456H89.018V74.346H195.151L196.417 111.271H194.307L193.885 104.308C193.463 97.2747 192.267 91.7183 190.298 87.639C188.329 83.5597 185.234 80.676 181.014 78.988C176.935 77.3 171.308 76.456 164.134 76.456H130.374V145.031H183.335V147.141H130.374V222.89H169.409C177.005 222.89 183.054 222.046 187.555 220.358C192.056 218.67 195.292 215.786 197.261 211.707C199.371 207.628 200.637 202.071 201.059 195.038L201.481 188.075H203.591L202.114 225H89.018ZM210.142 275.64V273.53H212.041C218.09 273.53 223.224 272.334 227.444 269.943C231.664 267.692 234.899 263.683 237.15 257.916C239.401 252.289 240.526 244.553 240.526 234.706V90.804C240.526 87.5687 239.893 84.896 238.627 82.786C237.361 80.676 235.392 79.1287 232.719 78.144C230.187 77.0187 227.022 76.456 223.224 76.456H220.481V74.346H281.882V76.456H279.139C275.341 76.456 272.106 77.0187 269.433 78.144C266.901 79.2693 265.002 80.9573 263.736 83.208C262.47 85.4587 261.837 88.272 261.837 91.648V226.688C261.837 236.113 260.571 243.99 258.039 250.32C255.648 256.65 252.272 261.644 247.911 265.301C243.55 268.958 238.416 271.561 232.508 273.108C226.741 274.796 220.481 275.64 213.729 275.64H210.142ZM295.897 225V222.89H302.016C305.814 222.89 308.979 222.327 311.511 221.202C314.184 220.077 316.153 218.389 317.419 216.138C318.685 213.887 319.318 211.074 319.318 207.698V90.804C319.318 87.5687 318.685 84.896 317.419 82.786C316.153 80.676 314.184 79.1287 311.511 78.144C308.979 77.0187 305.814 76.456 302.016 76.456H295.897V74.346H337.042L417.433 194.827V91.648C417.433 88.272 416.8 85.4587 415.534 83.208C414.268 80.9573 412.369 79.2693 409.837 78.144C407.305 77.0187 404.07 76.456 400.131 76.456H394.223V74.346H442.964V76.456H436.845C433.047 76.456 429.882 77.0187 427.35 78.144C424.818 79.2693 422.849 80.9573 421.442 83.208C420.176 85.4587 419.543 88.272 419.543 91.648V225H413.213L321.428 87.428V207.698C321.428 211.074 322.061 213.887 323.327 216.138C324.593 218.389 326.492 220.077 329.024 221.202C331.697 222.327 334.932 222.89 338.73 222.89H344.638V225H295.897Z" fill="#23419D" fill-opacity="0.14"/>
<path d="M103.54 169.378L103.207 173H88.7645L89.0505 166.136L88.7645 150.026H103.35L103.636 150.407L103.302 154.03L97.7729 153.839H93.6262L93.5308 159.368L97.5346 159.464L101.252 159.368L101.538 159.702L101.205 163.324L97.1533 163.229L93.4832 163.277L93.4355 165.707L93.5308 169.187L97.5822 169.235L103.254 168.996L103.54 169.378ZM126.435 162.657C126.467 160.909 125.72 160.036 124.195 160.036C123.115 160.036 121.987 160.512 120.811 161.465L120.763 165.707L120.906 173H116.188L116.474 162.657C116.474 160.909 115.711 160.036 114.186 160.036C113.106 160.036 111.962 160.512 110.754 161.465V165.707L110.992 173H106.274L106.512 166.136L106.321 156.699L110.802 156.318V158.749H111.04C112.406 157.541 113.836 156.683 115.33 156.175C118.031 156.175 119.747 157.064 120.478 158.844H120.62C122.019 157.573 123.576 156.683 125.292 156.175C127.103 156.175 128.469 156.588 129.391 157.414C130.344 158.24 130.805 159.416 130.773 160.941L130.678 165.707L130.868 173H126.149L126.435 162.657ZM141.062 156.079C143.191 156.079 144.78 156.493 145.829 157.319C146.877 158.145 147.401 159.289 147.401 160.75C147.401 161.164 147.322 162.514 147.163 164.802C147.163 164.802 147.115 166.105 147.02 168.71C147.02 169.123 147.068 169.409 147.163 169.568C147.258 169.695 147.449 169.759 147.735 169.759C148.021 169.759 148.355 169.711 148.736 169.616L149.117 169.902L148.641 172.38C147.878 172.857 147.02 173.159 146.067 173.286C144.542 173.159 143.62 172.285 143.302 170.664H143.064C141.857 171.936 140.633 172.825 139.394 173.334C137.678 173.302 136.328 172.841 135.343 171.951C134.358 171.062 133.865 169.87 133.865 168.377C133.865 166.057 135.088 164.659 137.535 164.182L143.016 163.181V161.704C143.016 160.147 142.286 159.368 140.824 159.368C139.362 159.368 137.646 160.051 135.676 161.418L135.295 161.227L134.771 158.081C136.868 156.747 138.965 156.079 141.062 156.079ZM139.203 166.375C138.472 166.534 138.107 166.979 138.107 167.709C138.107 169.139 138.727 169.854 139.966 169.854C140.887 169.854 141.872 169.298 142.921 168.186L143.016 165.517L139.203 166.375ZM162.294 162.657C162.294 160.909 161.547 160.036 160.054 160.036C158.974 160.036 157.83 160.544 156.622 161.561V165.707L156.86 173H152.094L152.332 166.136L152.142 156.699L156.67 156.318V158.749H156.908C158.274 157.541 159.704 156.683 161.198 156.175C163.009 156.175 164.375 156.588 165.297 157.414C166.25 158.24 166.711 159.416 166.679 160.941L166.584 165.707L166.774 173H162.008L162.294 162.657ZM185.455 169.759C185.741 169.759 186.075 169.711 186.456 169.616L186.79 169.902L186.361 172.38C185.598 172.857 184.725 173.159 183.74 173.286C182.246 173.159 181.309 172.269 180.927 170.617H180.546C179.18 171.92 177.782 172.778 176.352 173.191C174.572 173.191 173.206 172.793 172.253 171.999C171.299 171.173 170.823 169.981 170.823 168.424L170.918 164.23L170.775 156.699L175.351 156.318L175.208 166.851C175.208 168.536 175.923 169.378 177.353 169.378C178.37 169.378 179.402 168.917 180.451 167.995V156.699L184.979 156.318L184.693 168.71C184.693 169.409 184.947 169.759 185.455 169.759ZM192.736 165.326C192.927 168.345 194.389 169.854 197.121 169.854C198.678 169.854 200.283 169.409 201.935 168.52L202.317 168.806L201.697 172.285C200.045 172.984 198.377 173.35 196.692 173.381C194.055 173.381 192.006 172.619 190.544 171.093C189.082 169.568 188.351 167.471 188.351 164.802C188.351 162.101 189.082 159.988 190.544 158.463C192.037 156.906 193.928 156.127 196.216 156.127C198.504 156.127 200.204 156.715 201.316 157.891C202.46 159.035 203.032 160.623 203.032 162.657C203.032 163.293 202.984 163.944 202.889 164.611L202.174 165.279L192.736 165.326ZM196.359 159.225C195.437 159.225 194.659 159.527 194.023 160.131C193.42 160.735 193.022 161.593 192.832 162.705L198.837 162.514L198.933 162.133C198.901 160.194 198.043 159.225 196.359 159.225ZM211.141 173H206.422L206.661 166.089L206.47 148.31L211.189 147.929L210.903 165.707L211.141 173ZM234.842 168.71C234.874 169.123 234.937 169.409 235.033 169.568C235.128 169.695 235.319 169.759 235.605 169.759C235.891 169.759 236.224 169.711 236.605 169.616L236.939 169.902L236.51 172.38C235.748 172.857 234.874 173.159 233.889 173.286C232.363 173.159 231.394 172.333 230.981 170.807H230.695C229.551 171.888 228.36 172.698 227.12 173.238C224.769 173.238 222.958 172.507 221.687 171.046C220.416 169.552 219.78 167.439 219.78 164.707C219.78 161.974 220.511 159.861 221.973 158.367C223.466 156.874 225.516 156.127 228.121 156.127C228.82 156.127 229.583 156.191 230.409 156.318L230.362 148.31L235.08 147.929L234.747 165.707L234.842 168.71ZM224.213 163.944C224.213 167.662 225.341 169.521 227.597 169.521C228.614 169.521 229.583 169.028 230.505 168.043L230.552 166.089L230.457 159.94C229.535 159.527 228.662 159.321 227.835 159.321C225.42 159.321 224.213 160.862 224.213 163.944ZM242.89 165.326C243.08 168.345 244.542 169.854 247.275 169.854C248.832 169.854 250.436 169.409 252.089 168.52L252.47 168.806L251.85 172.285C250.198 172.984 248.53 173.35 246.846 173.381C244.208 173.381 242.159 172.619 240.697 171.093C239.235 169.568 238.505 167.471 238.505 164.802C238.505 162.101 239.235 159.988 240.697 158.463C242.191 156.906 244.081 156.127 246.369 156.127C248.657 156.127 250.357 156.715 251.469 157.891C252.613 159.035 253.185 160.623 253.185 162.657C253.185 163.293 253.137 163.944 253.042 164.611L252.327 165.279L242.89 165.326ZM246.512 159.225C245.591 159.225 244.812 159.527 244.177 160.131C243.573 160.735 243.176 161.593 242.985 162.705L248.991 162.514L249.086 162.133C249.054 160.194 248.196 159.225 246.512 159.225ZM268.625 168.71C268.625 170.077 268.403 171.221 267.958 172.142C267.068 173.953 264.939 175.494 261.571 176.765L260.094 174.192V173.81C261.555 173.048 262.588 172.285 263.192 171.522C263.827 170.76 264.145 169.791 264.145 168.615V165.898L263.954 153.601L260.141 153.696L259.76 153.315L260.046 150.026H268.768L268.53 165.421L268.625 168.71ZM276.906 165.326C277.097 168.345 278.559 169.854 281.291 169.854C282.848 169.854 284.453 169.409 286.105 168.52L286.487 168.806L285.867 172.285C284.215 172.984 282.546 173.35 280.862 173.381C278.225 173.381 276.175 172.619 274.714 171.093C273.252 169.568 272.521 167.471 272.521 164.802C272.521 162.101 273.252 159.988 274.714 158.463C276.207 156.906 278.098 156.127 280.386 156.127C282.674 156.127 284.374 156.715 285.486 157.891C286.63 159.035 287.202 160.623 287.202 162.657C287.202 163.293 287.154 163.944 287.059 164.611L286.344 165.279L276.906 165.326ZM280.529 159.225C279.607 159.225 278.829 159.527 278.193 160.131C277.589 160.735 277.192 161.593 277.002 162.705L283.007 162.514L283.103 162.133C283.071 160.194 282.213 159.225 280.529 159.225ZM295.692 156.127C297.504 156.095 299.124 156.365 300.554 156.937L299.934 160.417L299.362 160.607C297.933 159.686 296.63 159.225 295.454 159.225C294.882 159.225 294.421 159.384 294.072 159.702C293.754 159.988 293.595 160.353 293.595 160.798C293.595 161.243 293.818 161.624 294.262 161.942C294.707 162.26 295.406 162.609 296.36 162.991C297.313 163.372 298.091 163.753 298.695 164.135C299.331 164.484 299.871 164.977 300.316 165.612C300.761 166.216 300.983 166.994 300.983 167.948C300.983 168.901 300.745 169.791 300.268 170.617C299.156 172.46 297.17 173.381 294.31 173.381C292.594 173.381 290.815 173.016 288.972 172.285L289.544 168.567L289.973 168.281C290.704 168.917 291.53 169.425 292.451 169.807C293.373 170.156 294.167 170.331 294.834 170.331C295.502 170.331 296.01 170.172 296.36 169.854C296.709 169.536 296.884 169.155 296.884 168.71C296.884 168.234 296.662 167.836 296.217 167.519C295.772 167.169 295.073 166.804 294.119 166.422C293.166 166.009 292.388 165.628 291.784 165.279C290.259 164.421 289.496 163.165 289.496 161.513C289.496 159.861 290.068 158.558 291.212 157.605C292.388 156.62 293.881 156.127 295.692 156.127ZM318.683 169.759C318.969 169.759 319.303 169.711 319.684 169.616L320.018 169.902L319.589 172.38C318.826 172.857 317.952 173.159 316.967 173.286C315.474 173.159 314.536 172.269 314.155 170.617H313.774C312.407 171.92 311.009 172.778 309.579 173.191C307.8 173.191 306.433 172.793 305.48 171.999C304.527 171.173 304.05 169.981 304.05 168.424L304.146 164.23L304.003 156.699L308.578 156.318L308.435 166.851C308.435 168.536 309.15 169.378 310.58 169.378C311.597 169.378 312.63 168.917 313.678 167.995V156.699L318.206 156.318L317.92 168.71C317.92 169.409 318.175 169.759 318.683 169.759ZM327.966 156.127C329.777 156.095 331.398 156.365 332.827 156.937L332.208 160.417L331.636 160.607C330.206 159.686 328.903 159.225 327.727 159.225C327.156 159.225 326.695 159.384 326.345 159.702C326.027 159.988 325.869 160.353 325.869 160.798C325.869 161.243 326.091 161.624 326.536 161.942C326.981 162.26 327.68 162.609 328.633 162.991C329.586 163.372 330.365 163.753 330.969 164.135C331.604 164.484 332.144 164.977 332.589 165.612C333.034 166.216 333.256 166.994 333.256 167.948C333.256 168.901 333.018 169.791 332.541 170.617C331.429 172.46 329.443 173.381 326.584 173.381C324.868 173.381 323.088 173.016 321.245 172.285L321.817 168.567L322.246 168.281C322.977 168.917 323.803 169.425 324.725 169.807C325.646 170.156 326.441 170.331 327.108 170.331C327.775 170.331 328.284 170.172 328.633 169.854C328.983 169.536 329.157 169.155 329.157 168.71C329.157 168.234 328.935 167.836 328.49 167.519C328.045 167.169 327.346 166.804 326.393 166.422C325.44 166.009 324.661 165.628 324.057 165.279C322.532 164.421 321.77 163.165 321.77 161.513C321.77 159.861 322.341 158.558 323.485 157.605C324.661 156.62 326.155 156.127 327.966 156.127ZM361.529 173H356.286L346.944 157.414H346.61V165.04L346.753 173H342.32L342.606 166.232L342.415 150.026H347.611L356.953 165.564H357.287L357.096 150.217L361.624 149.931L361.338 165.898L361.529 173ZM372.604 156.079C374.733 156.079 376.322 156.493 377.371 157.319C378.419 158.145 378.943 159.289 378.943 160.75C378.943 161.164 378.864 162.514 378.705 164.802C378.705 164.802 378.657 166.105 378.562 168.71C378.562 169.123 378.61 169.409 378.705 169.568C378.8 169.695 378.991 169.759 379.277 169.759C379.563 169.759 379.897 169.711 380.278 169.616L380.659 169.902L380.183 172.38C379.42 172.857 378.562 173.159 377.609 173.286C376.084 173.159 375.162 172.285 374.844 170.664H374.606C373.399 171.936 372.175 172.825 370.936 173.334C369.22 173.302 367.87 172.841 366.885 171.951C365.9 171.062 365.407 169.87 365.407 168.377C365.407 166.057 366.63 164.659 369.077 164.182L374.558 163.181V161.704C374.558 160.147 373.828 159.368 372.366 159.368C370.904 159.368 369.188 160.051 367.218 161.418L366.837 161.227L366.313 158.081C368.41 156.747 370.507 156.079 372.604 156.079ZM370.745 166.375C370.014 166.534 369.649 166.979 369.649 167.709C369.649 169.139 370.269 169.854 371.508 169.854C372.429 169.854 373.414 169.298 374.463 168.186L374.558 165.517L370.745 166.375ZM392.787 156.365C393.01 156.397 393.312 156.429 393.693 156.461V160.798L393.216 160.989C392.803 160.83 392.359 160.75 391.882 160.75C390.516 160.75 389.26 161.624 388.116 163.372V165.707L388.402 173H383.636L383.874 166.136L383.684 156.699L388.212 156.318L388.164 159.607H388.45C389.594 157.478 391.04 156.397 392.787 156.365ZM409.905 168.71C409.937 169.123 410.001 169.409 410.096 169.568C410.191 169.695 410.382 169.759 410.668 169.759C410.954 169.759 411.288 169.711 411.669 169.616L412.003 169.902L411.574 172.38C410.811 172.857 409.937 173.159 408.952 173.286C407.427 173.159 406.458 172.333 406.045 170.807H405.759C404.615 171.888 403.423 172.698 402.184 173.238C399.832 173.238 398.021 172.507 396.75 171.046C395.479 169.552 394.844 167.439 394.844 164.707C394.844 161.974 395.575 159.861 397.036 158.367C398.53 156.874 400.579 156.127 403.185 156.127C403.884 156.127 404.647 156.191 405.473 156.318L405.425 148.31L410.144 147.929L409.81 165.707L409.905 168.71ZM399.276 163.944C399.276 167.662 400.404 169.521 402.661 169.521C403.677 169.521 404.647 169.028 405.568 168.043L405.616 166.089L405.52 159.94C404.599 159.527 403.725 159.321 402.899 159.321C400.484 159.321 399.276 160.862 399.276 163.944ZM417.953 165.326C418.144 168.345 419.606 169.854 422.338 169.854C423.895 169.854 425.5 169.409 427.152 168.52L427.534 168.806L426.914 172.285C425.262 172.984 423.593 173.35 421.909 173.381C419.272 173.381 417.222 172.619 415.761 171.093C414.299 169.568 413.568 167.471 413.568 164.802C413.568 162.101 414.299 159.988 415.761 158.463C417.254 156.906 419.145 156.127 421.433 156.127C423.72 156.127 425.42 156.715 426.533 157.891C427.677 159.035 428.249 160.623 428.249 162.657C428.249 163.293 428.201 163.944 428.106 164.611L427.391 165.279L417.953 165.326ZM421.576 159.225C420.654 159.225 419.876 159.527 419.24 160.131C418.636 160.735 418.239 161.593 418.049 162.705L424.054 162.514L424.149 162.133C424.118 160.194 423.26 159.225 421.576 159.225ZM436.739 156.127C438.55 156.095 440.171 156.365 441.601 156.937L440.981 160.417L440.409 160.607C438.979 159.686 437.677 159.225 436.501 159.225C435.929 159.225 435.468 159.384 435.119 159.702C434.801 159.988 434.642 160.353 434.642 160.798C434.642 161.243 434.864 161.624 435.309 161.942C435.754 162.26 436.453 162.609 437.407 162.991C438.36 163.372 439.138 163.753 439.742 164.135C440.378 164.484 440.918 164.977 441.363 165.612C441.807 166.216 442.03 166.994 442.03 167.948C442.03 168.901 441.792 169.791 441.315 170.617C440.203 172.46 438.217 173.381 435.357 173.381C433.641 173.381 431.862 173.016 430.019 172.285L430.591 168.567L431.02 168.281C431.75 168.917 432.577 169.425 433.498 169.807C434.42 170.156 435.214 170.331 435.881 170.331C436.549 170.331 437.057 170.172 437.407 169.854C437.756 169.536 437.931 169.155 437.931 168.71C437.931 168.234 437.708 167.836 437.264 167.519C436.819 167.169 436.12 166.804 435.166 166.422C434.213 166.009 433.435 165.628 432.831 165.279C431.306 164.421 430.543 163.165 430.543 161.513C430.543 159.861 431.115 158.558 432.259 157.605C433.435 156.62 434.928 156.127 436.739 156.127Z" fill="#23419D"/>
</svg>
